<?xml version="1.0" encoding="UTF-8" standalone="no"?>
<svg
   xmlns:dc="http://purl.org/dc/elements/1.1/"
   xmlns:cc="http://creativecommons.org/ns#"
   xmlns:rdf="http://www.w3.org/1999/02/22-rdf-syntax-ns#"
   xmlns:svg="http://www.w3.org/2000/svg"
   xmlns="http://www.w3.org/2000/svg"
   xmlns:xlink="http://www.w3.org/1999/xlink"
   xmlns:sodipodi="http://sodipodi.sourceforge.net/DTD/sodipodi-0.dtd"
   xmlns:inkscape="http://www.inkscape.org/namespaces/inkscape"
   width="32"
   height="32"
   version="1"
   id="svg22"
   sodipodi:docname="accessories-character-map.svg"
   inkscape:version="0.92.4 5da689c313, 2019-01-14">
  <metadata
     id="metadata28">
    <rdf:RDF>
      <cc:Work
         rdf:about="">
        <dc:format>image/svg+xml</dc:format>
        <dc:type
           rdf:resource="http://purl.org/dc/dcmitype/StillImage" />
        <dc:title></dc:title>
      </cc:Work>
    </rdf:RDF>
  </metadata>
  <defs
     id="defs26">
    <linearGradient
       inkscape:collect="always"
       id="linearGradient1078">
      <stop
         style="stop-color:#3c3c3c;stop-opacity:1;"
         offset="0"
         id="stop1074" />
      <stop
         style="stop-color:#646464;stop-opacity:1"
         offset="1"
         id="stop1076" />
    </linearGradient>
    <linearGradient
       inkscape:collect="always"
       id="linearGradient866">
      <stop
         style="stop-color:#e6e6e6;stop-opacity:1"
         offset="0"
         id="stop862" />
      <stop
         style="stop-color:#fafafa;stop-opacity:1"
         offset="1"
         id="stop864" />
    </linearGradient>
    <linearGradient
       inkscape:collect="always"
       xlink:href="#linearGradient866"
       id="linearGradient868"
       x1="-44"
       y1="-23"
       x2="-4.4339013"
       y2="-23.959322"
       gradientUnits="userSpaceOnUse"
       gradientTransform="matrix(0.7,0,0,0.7,0.8,0.8)" />
    <linearGradient
       inkscape:collect="always"
       xlink:href="#linearGradient1078"
       id="linearGradient1080"
       x1="34.743954"
       y1="44.01141"
       x2="34.965313"
       y2="24.72113"
       gradientUnits="userSpaceOnUse"
       gradientTransform="matrix(0.7,0,0,0.7,-0.8,-0.8)" />
  </defs>
  <sodipodi:namedview
     pagecolor="#ffffff"
     bordercolor="#666666"
     borderopacity="1"
     objecttolerance="10"
     gridtolerance="10"
     guidetolerance="10"
     inkscape:pageopacity="0"
     inkscape:pageshadow="2"
     inkscape:window-width="1366"
     inkscape:window-height="709"
     id="namedview24"
     showgrid="false"
     inkscape:zoom="5.6568543"
     inkscape:cx="26.243747"
     inkscape:cy="16.12757"
     inkscape:window-x="0"
     inkscape:window-y="25"
     inkscape:window-maximized="1"
     inkscape:current-layer="svg22" />
  <path
     style="opacity:0.2;stroke-width:0.73684216"
     d="m 2,27.315789 v 1.473685 C 2,30.014105 2.9858948,31 4.2105263,31 H 27.789473 C 29.014105,31 30,30.014105 30,28.789474 v -1.473685 c 0,1.224632 -0.985895,2.210527 -2.210527,2.210527 H 4.2105263 C 2.9858948,29.526316 2,28.540421 2,27.315789 Z"
     id="path4"
     inkscape:connector-curvature="0" />
  <rect
     style="fill:url(#linearGradient868);fill-opacity:1;stroke-width:0.73684216"
     width="28"
     height="28"
     x="-30"
     y="-30"
     rx="2.2105262"
     ry="2.2105262"
     transform="matrix(0,-1,-1,0,0,0)"
     id="rect12" />
  <rect
     style="opacity:1;fill:#747474;fill-opacity:1;stroke:none;stroke-width:0.24679554;stroke-miterlimit:4;stroke-dasharray:none;stroke-opacity:1"
     id="rect911-5-9"
     width="0.69999999"
     height="28"
     x="15.299999"
     y="2" />
  <path
     sodipodi:type="inkscape:offset"
     inkscape:radius="0"
     inkscape:original="M 6.5644531 7.6660156 L -4.5683594 36.826172 L -0.40820312 36.826172 L 2.2480469 29.345703 L 15.392578 29.345703 L 18.048828 36.826172 L 22.150391 36.826172 L 11.037109 7.6660156 L 6.5644531 7.6660156 z M 8.7910156 11.552734 L 14.162109 26.064453 L 3.4394531 26.064453 L 8.7910156 11.552734 z "
     style="font-style:normal;font-weight:normal;font-size:40px;line-height:1.25;font-family:sans-serif;letter-spacing:0px;word-spacing:0px;opacity:0.5;fill:#000000;fill-opacity:1;stroke:none"
     id="text942"
     d="M 6.5644531,7.6660156 -4.5683594,36.826172 h 4.16015628 L 2.2480469,29.345703 H 15.392578 l 2.65625,7.480469 h 4.101563 L 11.037109,7.6660156 Z M 8.7910156,11.552734 14.162109,26.064453 H 3.4394531 Z"
     transform="matrix(0.24005358,0,0,0.24005358,6.8896869,3.6597458)" />
  <path
     sodipodi:type="inkscape:offset"
     inkscape:radius="0"
     inkscape:original="M 3.3828125 14.5 L 3.3828125 43.660156 L 13.851562 43.660156 C 17.119792 43.660156 19.639323 42.950521 21.410156 41.53125 C 23.18099 40.111979 24.066406 38.10026 24.066406 35.496094 C 24.066406 33.516927 23.526042 31.869792 22.445312 30.554688 C 21.377604 29.226562 19.873698 28.354167 17.933594 27.9375 C 19.548177 27.677083 20.772135 27.019531 21.605469 25.964844 C 22.438802 24.910156 22.855469 23.490885 22.855469 21.707031 C 22.855469 19.402344 22.041667 17.625 20.414062 16.375 C 18.786458 15.125 16.46875 14.5 13.460938 14.5 L 3.3828125 14.5 z M 7.328125 17.742188 L 13.167969 17.742188 C 15.095052 17.742188 16.527344 18.106771 17.464844 18.835938 C 18.415365 19.565104 18.890625 20.665365 18.890625 22.136719 C 18.890625 23.621094 18.415365 24.727865 17.464844 25.457031 C 16.527344 26.173177 15.095052 26.53125 13.167969 26.53125 L 7.328125 26.53125 L 7.328125 17.742188 z M 7.328125 29.734375 L 13.65625 29.734375 C 15.778646 29.734375 17.347656 30.170573 18.363281 31.042969 C 19.391927 31.902344 19.90625 33.24349 19.90625 35.066406 C 19.90625 36.876302 19.391927 38.223958 18.363281 39.109375 C 17.347656 39.981771 15.778646 40.417969 13.65625 40.417969 L 7.328125 40.417969 L 7.328125 29.734375 z "
     style="font-style:normal;font-weight:normal;font-size:40px;line-height:1.25;font-family:sans-serif;letter-spacing:0px;word-spacing:0px;opacity:0.5;fill:#000000;fill-opacity:1;stroke:none"
     id="text948"
     d="M 3.3828125,14.5 V 43.660156 H 13.851562 c 3.26823,0 5.787761,-0.709635 7.558594,-2.128906 1.770834,-1.419271 2.65625,-3.43099 2.65625,-6.035156 0,-1.979167 -0.540364,-3.626302 -1.621094,-4.941406 -1.067708,-1.328126 -2.571614,-2.200521 -4.511718,-2.617188 1.614583,-0.260417 2.838541,-0.917969 3.671875,-1.972656 0.833333,-1.054688 1.25,-2.473959 1.25,-4.257813 0,-2.304687 -0.813802,-4.082031 -2.441407,-5.332031 C 18.786458,15.125 16.46875,14.5 13.460938,14.5 Z m 3.9453125,3.242188 h 5.839844 c 1.927083,0 3.359375,0.364583 4.296875,1.09375 0.950521,0.729166 1.425781,1.829427 1.425781,3.300781 0,1.484375 -0.47526,2.591146 -1.425781,3.320312 -0.9375,0.716146 -2.369792,1.074219 -4.296875,1.074219 H 7.328125 Z m 0,11.992187 h 6.328125 c 2.122396,0 3.691406,0.436198 4.707031,1.308594 1.028646,0.859375 1.542969,2.200521 1.542969,4.023437 0,1.809896 -0.514323,3.157552 -1.542969,4.042969 -1.015625,0.872396 -2.584635,1.308594 -4.707031,1.308594 H 7.328125 Z"
     transform="matrix(0.24005358,0,0,0.24005358,19.705361,2.0192234)" />
  <path
     sodipodi:type="inkscape:offset"
     inkscape:radius="0"
     inkscape:original="M 11.060547 13.322266 C 6.6464844 13.322266 3.1699219 14.676432 0.63085938 17.384766 C -1.9082031 20.080078 -3.1777344 23.771484 -3.1777344 28.458984 C -3.1777344 33.133464 -1.9082031 36.82487 0.63085938 39.533203 C 3.1699219 42.228516 6.6464844 43.576172 11.060547 43.576172 C 12.779297 43.576172 14.406901 43.341797 15.943359 42.873047 C 17.492839 42.404297 18.957682 41.701172 20.337891 40.763672 L 20.337891 36.642578 C 19.009766 37.879557 17.590495 38.804036 16.080078 39.416016 C 14.582682 40.027995 12.98763 40.333984 11.294922 40.333984 C 7.9615885 40.333984 5.4095052 39.318359 3.6386719 37.287109 C 1.8678385 35.242839 0.98242188 32.30013 0.98242188 28.458984 C 0.98242188 24.604818 1.8678385 21.662109 3.6386719 19.630859 C 5.4095052 17.586589 7.9615885 16.564453 11.294922 16.564453 C 12.98763 16.564453 14.582682 16.870443 16.080078 17.482422 C 17.590495 18.094401 19.009766 19.01888 20.337891 20.255859 L 20.337891 16.095703 C 18.983724 15.171224 17.531901 14.48112 15.982422 14.025391 C 14.445964 13.556641 12.805339 13.322266 11.060547 13.322266 z "
     style="font-style:normal;font-weight:normal;font-size:40px;line-height:1.25;font-family:sans-serif;letter-spacing:0px;word-spacing:0px;opacity:0.5;fill:#000000;fill-opacity:1;stroke:none"
     id="text954"
     d="m 11.060547,13.322266 c -4.4140626,0 -7.8906251,1.354166 -10.42968762,4.0625 -2.53906248,2.695312 -3.80859378,6.386718 -3.80859378,11.074218 0,4.67448 1.2695313,8.365886 3.80859378,11.074219 2.53906252,2.695313 6.01562502,4.042969 10.42968762,4.042969 1.71875,0 3.346354,-0.234375 4.882812,-0.703125 1.54948,-0.46875 3.014323,-1.171875 4.394532,-2.109375 v -4.121094 c -1.328125,1.236979 -2.747396,2.161458 -4.257813,2.773438 -1.497396,0.611979 -3.092448,0.917968 -4.785156,0.917968 -3.3333335,0 -5.8854168,-1.015625 -7.6562501,-3.046875 -1.7708334,-2.04427 -2.65625002,-4.986979 -2.65625002,-8.828125 0,-3.854166 0.88541662,-6.796875 2.65625002,-8.828125 1.7708333,-2.04427 4.3229166,-3.066406 7.6562501,-3.066406 1.692708,0 3.28776,0.30599 4.785156,0.917969 1.510417,0.611979 2.929688,1.536458 4.257813,2.773437 v -4.160156 c -1.354167,-0.924479 -2.80599,-1.614583 -4.355469,-2.070312 -1.536458,-0.46875 -3.177083,-0.703125 -4.921875,-0.703125 z"
     transform="matrix(0.23137508,0,0,0.23137508,7.0147853,16.41756)" />
  <path
     style="fill:url(#linearGradient1080);fill-opacity:1;stroke-width:0.73684216"
     d="M 16,16 V 30 H 27.789258 C 29.013889,30 30,29.01389 30,27.789258 V 16 Z"
     id="rect12-3"
     inkscape:connector-curvature="0" />
  <rect
     style="opacity:1;fill:#747474;fill-opacity:1;stroke:none;stroke-width:0.24679554;stroke-miterlimit:4;stroke-dasharray:none;stroke-opacity:1"
     id="rect911-5-9-1"
     width="0.69999999"
     height="28"
     x="16"
     y="-30"
     transform="rotate(90)" />
  <path
     style="opacity:1;fill:#ffffff;fill-opacity:1;stroke-width:0.36457357"
     d="m 23.921331,23.808037 c -0.802139,7e-6 -1.357816,0.08923 -1.667199,0.267692 -0.309339,0.178467 -0.464003,0.592094 -0.464003,1.022529 0,0.342925 0.115106,0.615868 0.345309,0.818833 0.233792,0.199458 0.550324,0.299184 0.949569,0.299184 0.550322,0 0.990911,-0.188959 1.321871,-0.566869 0.334504,-0.381416 0.428741,-0.99628 0.428749,-1.626118 v -0.215201 h -0.914322 m 1.98037,-0.398843 v 3.615617 h -1.093698 v -1.044743 c -0.226039,0.357281 -0.407985,0.621233 -0.745578,0.792582 -0.338328,0.168434 -0.751748,0.252285 -1.241012,0.252285 -0.619046,0 -1.111216,-0.167704 -1.478707,-0.503841 -0.363116,-0.339782 -0.54467,-0.792582 -0.54467,-1.35913 0,-0.661351 0.226598,-1.269201 0.679813,-1.605118 0.456812,-0.335919 1.136905,-0.527522 2.039424,-0.503884 h 1.319001 v -0.09448 c -8e-6,-0.444393 -0.151068,-0.678133 -0.453206,-0.919553 -0.926773,-0.546587 -2.313999,-0.432329 -3.220805,0.0063 V 21.26215 c 0.363292,-0.136467 0.793993,-0.237935 1.135689,-0.304433 0.341705,-0.06997 0.674424,-0.104969 0.998131,-0.104976 0.874028,7e-6 1.526909,0.220458 1.958485,0.661352 0.43163,0.440907 0.647439,1.00005 0.647448,1.895879 m -3.344591,-5.134954 1.521511,1.822976 h -0.825475 l -1.758698,-1.822756 h 1.06288"
     id="path20"
     inkscape:connector-curvature="0" />
</svg>
