<?xml version="1.0" encoding="UTF-8" standalone="no"?>
<svg
   xmlns:dc="http://purl.org/dc/elements/1.1/"
   xmlns:cc="http://creativecommons.org/ns#"
   xmlns:rdf="http://www.w3.org/1999/02/22-rdf-syntax-ns#"
   xmlns:svg="http://www.w3.org/2000/svg"
   xmlns="http://www.w3.org/2000/svg"
   xmlns:xlink="http://www.w3.org/1999/xlink"
   xmlns:sodipodi="http://sodipodi.sourceforge.net/DTD/sodipodi-0.dtd"
   xmlns:inkscape="http://www.inkscape.org/namespaces/inkscape"
   width="32"
   height="32"
   version="1"
   id="svg12"
   sodipodi:docname="system-software-update.svg"
   inkscape:version="0.92.4 5da689c313, 2019-01-14">
  <metadata
     id="metadata18">
    <rdf:RDF>
      <cc:Work
         rdf:about="">
        <dc:format>image/svg+xml</dc:format>
        <dc:type
           rdf:resource="http://purl.org/dc/dcmitype/StillImage" />
        <dc:title />
      </cc:Work>
    </rdf:RDF>
  </metadata>
  <defs
     id="defs16">
    <linearGradient
       inkscape:collect="always"
       id="linearGradient856">
      <stop
         style="stop-color:#0083d7;stop-opacity:1;"
         offset="0"
         id="stop852" />
      <stop
         style="stop-color:#00f6f6;stop-opacity:1"
         offset="1"
         id="stop854" />
    </linearGradient>
    <linearGradient
       inkscape:collect="always"
       id="linearGradient832">
      <stop
         style="stop-color:#dcdcdc;stop-opacity:1"
         offset="0"
         id="stop828" />
      <stop
         style="stop-color:#f0f0f0;stop-opacity:1"
         offset="1"
         id="stop830" />
    </linearGradient>
    <linearGradient
       inkscape:collect="always"
       xlink:href="#linearGradient832"
       id="linearGradient834"
       x1="-58"
       y1="-32"
       x2="-6"
       y2="-32"
       gradientUnits="userSpaceOnUse"
       gradientTransform="matrix(0.53846155,0,0,0.53846155,1.2307688,1.2307693)" />
    <linearGradient
       inkscape:collect="always"
       xlink:href="#linearGradient856"
       id="linearGradient858"
       x1="-0.033898309"
       y1="32.40678"
       x2="68.372879"
       y2="32"
       gradientUnits="userSpaceOnUse"
       gradientTransform="matrix(0.53846155,0,0,0.53846155,-1.2307693,-1.2307688)" />
  </defs>
  <sodipodi:namedview
     pagecolor="#ffffff"
     bordercolor="#666666"
     borderopacity="1"
     objecttolerance="10"
     gridtolerance="10"
     guidetolerance="10"
     inkscape:pageopacity="0"
     inkscape:pageshadow="2"
     inkscape:window-width="1366"
     inkscape:window-height="691"
     id="namedview14"
     showgrid="false"
     inkscape:zoom="8.53125"
     inkscape:cx="-3.6923077"
     inkscape:cy="30.886447"
     inkscape:window-x="0"
     inkscape:window-y="0"
     inkscape:window-maximized="1"
     inkscape:current-layer="svg12" />
  <rect
     style="fill:url(#linearGradient834);fill-opacity:1;stroke-width:0.53846157"
     width="28"
     height="28"
     x="-30"
     y="-30"
     rx="14"
     ry="14"
     transform="matrix(0,-1,-1,0,0,0)"
     id="rect2" />
  <path
     style="opacity:0.2;stroke-width:0.53846157"
     d="M 2.0094651,15.823317 C 2.0062488,15.882189 2,15.940274 2,16 2,23.755881 8.244001,30 16,30 23.756,30 30,23.755881 30,16 30,15.94028 29.9937,15.882189 29.9905,15.823317 29.799318,23.410112 23.634632,29.461538 16,29.461538 c -7.634631,0 -13.7993175,-6.051426 -13.9905349,-13.638221 z"
     id="path6"
     inkscape:connector-curvature="0" />
  <path
     style="opacity:1;fill:#ffffff;fill-opacity:1;stroke-width:0.53846157"
     d="M 16.001051,6.8456933 C 15.095302,6.8363273 14.195856,6.9703913 13.322416,7.2095757 9.25516,8.3006062 6.2785827,12.32613 6.3402947,16.539053 H 4.153846 c 1.1145955,1.638896 3.2307696,4.845102 3.2307696,4.845102 0,0 3.2307684,-4.846667 3.2307684,-4.847205 H 8.505709 c -0.0078,-1.764324 0.654418,-3.538542 1.828877,-4.85562 2.2074,-2.6539684 6.204564,-3.7587672 9.278996,-1.503906 0.974611,1.275723 3.100245,-0.171871 2.003455,-1.4334427 -1.615486,-1.2580946 -3.57638,-1.8939802 -5.615986,-1.898288 z m 8.614333,4.8461537 c 0,0 -3.230768,4.845616 -3.230768,4.846154 h 2.109675 c 0.0078,1.764323 -0.654418,3.539594 -1.828877,4.856671 -2.2074,2.653969 -6.204564,3.758767 -9.278996,1.503906 -0.974611,-1.275723 -3.100245,0.171871 -2.003455,1.433444 1.615486,1.258093 3.57638,1.893979 5.615986,1.898287 0.905749,0.0094 1.805195,-0.124697 2.678635,-0.363882 4.067256,-1.091031 7.043833,-5.116555 6.982121,-9.329477 h 2.186449 c -1.114595,-1.638896 -3.23077,-4.845103 -3.23077,-4.845103 z"
     id="path8"
     inkscape:connector-curvature="0" />
  <path
     style="fill:url(#linearGradient858);fill-opacity:1;stroke-width:0.53846157"
     d="M 16.001051,6.3076922 C 15.095302,6.2983262 14.195856,6.4323902 13.322416,6.6715746 9.25516,7.7626051 6.2785827,11.788129 6.3402947,16.001051 H 4.153846 c 1.1145955,1.638896 3.2307696,4.845103 3.2307696,4.845103 0,0 3.2307684,-4.846667 3.2307684,-4.847205 H 8.505709 c -0.0078,-1.764324 0.654418,-3.538542 1.828877,-4.85562 2.2074,-2.6539692 6.204564,-3.7587673 9.278996,-1.5039063 0.974611,1.2757233 3.100245,-0.171871 2.003455,-1.4334425 C 20.001551,6.9478863 18.040657,6.312 16.001051,6.3076922 Z m 8.614333,4.8461538 c 0,0 -3.230768,4.845616 -3.230768,4.846154 h 2.109675 c 0.0078,1.764323 -0.654418,3.539593 -1.828877,4.856671 -2.2074,2.653969 -6.204564,3.758767 -9.278996,1.503906 -0.974611,-1.275723 -3.100245,0.171871 -2.003455,1.433443 1.615486,1.258094 3.57638,1.89398 5.615986,1.898288 0.905749,0.0094 1.805195,-0.124698 2.678635,-0.363883 4.067256,-1.09103 7.043833,-5.116554 6.982121,-9.329476 h 2.186449 c -1.114595,-1.638896 -3.23077,-4.845103 -3.23077,-4.845103 z"
     id="path10"
     inkscape:connector-curvature="0" />
</svg>
