<?xml version="1.0" encoding="UTF-8" standalone="no"?>
<svg
   xmlns:dc="http://purl.org/dc/elements/1.1/"
   xmlns:cc="http://creativecommons.org/ns#"
   xmlns:rdf="http://www.w3.org/1999/02/22-rdf-syntax-ns#"
   xmlns:svg="http://www.w3.org/2000/svg"
   xmlns="http://www.w3.org/2000/svg"
   xmlns:xlink="http://www.w3.org/1999/xlink"
   xmlns:sodipodi="http://sodipodi.sourceforge.net/DTD/sodipodi-0.dtd"
   xmlns:inkscape="http://www.inkscape.org/namespaces/inkscape"
   width="32"
   height="32"
   version="1"
   id="svg12"
   sodipodi:docname="utilities-tweak-tool.svg"
   inkscape:version="0.92.4 5da689c313, 2019-01-14">
  <metadata
     id="metadata18">
    <rdf:RDF>
      <cc:Work
         rdf:about="">
        <dc:format>image/svg+xml</dc:format>
        <dc:type
           rdf:resource="http://purl.org/dc/dcmitype/StillImage" />
        <dc:title />
      </cc:Work>
    </rdf:RDF>
  </metadata>
  <defs
     id="defs16">
    <linearGradient
       inkscape:collect="always"
       id="linearGradient4607">
      <stop
         style="stop-color:#646464;stop-opacity:1;"
         offset="0"
         id="stop4603" />
      <stop
         style="stop-color:#8c8c8c;stop-opacity:1"
         offset="1"
         id="stop4605" />
    </linearGradient>
    <linearGradient
       inkscape:collect="always"
       id="linearGradient4535">
      <stop
         style="stop-color:#dcdcdc;stop-opacity:1"
         offset="0"
         id="stop4531" />
      <stop
         style="stop-color:#f0f0f0;stop-opacity:1"
         offset="1"
         id="stop4533" />
    </linearGradient>
    <linearGradient
       inkscape:collect="always"
       xlink:href="#linearGradient4535"
       id="linearGradient4537"
       x1="30.529007"
       y1="4"
       x2="33.508476"
       y2="59.389832"
       gradientUnits="userSpaceOnUse"
       gradientTransform="matrix(0.35185184,0,0,-0.35714285,4.740741,27.428571)" />
    <linearGradient
       inkscape:collect="always"
       xlink:href="#linearGradient4607"
       id="linearGradient4609"
       x1="4"
       y1="32"
       x2="60"
       y2="32"
       gradientUnits="userSpaceOnUse"
       gradientTransform="matrix(0.49999999,0,0,0.49999999,-32,1e-7)" />
    <filter
       inkscape:collect="always"
       style="color-interpolation-filters:sRGB"
       id="filter4721"
       x="-0.049263157"
       width="1.0985264"
       y="-0.046799999"
       height="1.0936">
      <feGaussianBlur
         inkscape:collect="always"
         stdDeviation="0.78"
         id="feGaussianBlur4723" />
    </filter>
  </defs>
  <sodipodi:namedview
     pagecolor="#ffffff"
     bordercolor="#666666"
     borderopacity="1"
     objecttolerance="10"
     gridtolerance="10"
     guidetolerance="10"
     inkscape:pageopacity="0"
     inkscape:pageshadow="2"
     inkscape:window-width="1366"
     inkscape:window-height="691"
     id="namedview14"
     showgrid="false"
     inkscape:zoom="16.1875"
     inkscape:cx="5.2200772"
     inkscape:cy="15.413127"
     inkscape:window-x="0"
     inkscape:window-y="0"
     inkscape:window-maximized="1"
     inkscape:current-layer="svg12" />
  <rect
     style="opacity:0.2;fill:#000000;fill-opacity:1;stroke:none;stroke-width:0.43074712;stroke-miterlimit:4;stroke-dasharray:none;stroke-opacity:0"
     id="rect4601-5"
     width="28"
     height="28"
     x="-31"
     y="2"
     rx="14"
     ry="14"
     transform="rotate(-90)" />
  <rect
     style="opacity:1;fill:url(#linearGradient4609);fill-opacity:1;stroke:none;stroke-width:0.43074712;stroke-miterlimit:4;stroke-dasharray:none;stroke-opacity:0"
     id="rect4601"
     width="28"
     height="28"
     x="-30"
     y="2"
     rx="14"
     ry="14"
     transform="rotate(-90)" />
  <path
     style="fill:#000000;fill-opacity:1;stroke:none;stroke-width:0.72662705;filter:url(#filter4721)"
     d="m 30.964856,37 c -2.293237,0 -4.139128,-1.783721 -4.139128,-3.999721 v -1.875 a 15.522816,15 0 0 1 -4.895635,-2.73298 l -1.681927,0.9375 c -1.986002,1.108 -4.508411,0.454268 -5.65503,-1.464843 l -1.035143,-1.729912 c -1.146618,-1.919113 -0.470102,-4.356564 1.5159,-5.464564 l 1.674709,-0.93471 A 15.522816,15 0 0 1 16.477183,17 15.522816,15 0 0 1 16.748602,14.26423 l -1.674709,-0.93471 c -1.986002,-1.108 -2.662518,-3.545452 -1.5159,-5.464564 l 1.035143,-1.729912 c 1.146619,-1.919112 3.669029,-2.572843 5.65503,-1.464843 l 1.670376,0.93192 A 15.522816,15 0 0 1 26.825728,2.878906 V 0.999721 C 26.825728,-1.216279 28.671619,-3 30.964856,-3 h 2.070287 c 2.293238,0 4.139129,1.783721 4.139129,3.999721 v 1.88616 a 15.522816,15 0 0 1 4.895635,2.72182 l 1.681928,-0.9375 c 1.986001,-1.108 4.508409,-0.454269 5.655028,1.464843 l 1.035143,1.729912 c 1.146619,1.919112 0.470101,4.356564 -1.5159,5.464564 l -1.674709,0.93471 A 15.522816,15 0 0 1 47.522815,17 15.522816,15 0 0 1 47.251397,19.73577 l 1.674709,0.93471 c 1.986002,1.108 2.662519,3.545451 1.5159,5.464564 l -1.035143,1.729912 c -1.146619,1.919113 -3.669028,2.572843 -5.655028,1.464843 l -1.670379,-0.93192 a 15.522816,15 0 0 1 -4.907184,2.72461 v 1.87779 c 0,2.216 -1.845891,3.999721 -4.139129,3.999721 z m 1.035143,-11.429966 c 4.898721,0 8.870181,-3.8377 8.870181,-8.571429 0,-4.733729 -3.97146,-8.570034 -8.870181,-8.570034 -4.89872,0 -8.870179,3.836305 -8.870179,8.570034 0,4.733729 3.971459,8.571429 8.870179,8.571429 z"
     id="path4-6"
     inkscape:connector-curvature="0"
     transform="matrix(0.49999999,0,0,0.49999999,3.4215287e-8,8.0639997)" />
  <path
     style="fill:url(#linearGradient4537);fill-opacity:1;stroke-width:0.36331353"
     d="m 15.482428,26 c -1.146618,0 -2.069564,-0.89186 -2.069564,-1.99986 v -0.9375 A 7.7614082,7.5000002 0 0 1 10.965047,21.69615 L 10.124084,22.1649 C 9.1310829,22.7189 7.8698779,22.392034 7.2965681,21.432478 L 6.7789972,20.567522 C 6.2056881,19.607966 6.5439456,18.38924 7.5369467,17.83524 L 8.3743009,17.367885 A 7.7614082,7.5000002 0 0 1 8.2385919,16 7.7614082,7.5000002 0 0 1 8.3743009,14.632115 L 7.5369467,14.16476 C 6.5439456,13.61076 6.2056881,12.392034 6.7789972,11.432478 L 7.2965681,10.567522 C 7.8698779,9.607966 9.1310829,9.281101 10.124084,9.8351006 L 10.959271,10.30106 A 7.7614082,7.5000002 0 0 1 13.412864,8.9394534 V 7.9998609 c 0,-1.1079999 0.922946,-1.9998607 2.069564,-1.9998607 h 1.035144 c 1.146619,0 2.069564,0.8918608 2.069564,1.9998607 v 0.9430799 a 7.7614082,7.5000002 0 0 1 2.447818,1.3609102 l 0.840964,-0.4687504 c 0.993,-0.5539996 2.254204,-0.2271346 2.827514,0.7324214 l 0.517571,0.864956 c 0.573309,0.959556 0.235051,2.178282 -0.75795,2.732282 l -0.837355,0.467355 A 7.7614082,7.5000002 0 0 1 23.761407,16 7.7614082,7.5000002 0 0 1 23.625698,17.367885 l 0.837355,0.467355 c 0.993001,0.554 1.331259,1.772726 0.75795,2.732282 l -0.517571,0.864956 c -0.57331,0.959557 -1.834514,1.286422 -2.827514,0.732422 l -0.83519,-0.465961 a 7.7614082,7.5000002 0 0 1 -2.453592,1.362305 v 0.938896 c 0,1.108 -0.922945,1.99986 -2.069564,1.99986 z M 16,20.285017 c 2.44936,0 4.43509,-1.91885 4.43509,-4.285714 0,-2.366865 -1.98573,-4.285017 -4.43509,-4.285017 -2.44936,0 -4.435089,1.918152 -4.435089,4.285017 0,2.366864 1.985729,4.285714 4.435089,4.285714 z"
     id="path4"
     inkscape:connector-curvature="0" />
</svg>
