<?xml version="1.0" encoding="UTF-8" standalone="no"?>
<svg
   xmlns:dc="http://purl.org/dc/elements/1.1/"
   xmlns:cc="http://creativecommons.org/ns#"
   xmlns:rdf="http://www.w3.org/1999/02/22-rdf-syntax-ns#"
   xmlns:svg="http://www.w3.org/2000/svg"
   xmlns="http://www.w3.org/2000/svg"
   xmlns:xlink="http://www.w3.org/1999/xlink"
   xmlns:sodipodi="http://sodipodi.sourceforge.net/DTD/sodipodi-0.dtd"
   xmlns:inkscape="http://www.inkscape.org/namespaces/inkscape"
   width="32"
   height="32"
   version="1"
   id="svg24"
   sodipodi:docname="user-trash.svg"
   inkscape:version="0.92.5 (2060ec1f9f, 2020-04-08)">
  <metadata
     id="metadata30">
    <rdf:RDF>
      <cc:Work
         rdf:about="">
        <dc:format>image/svg+xml</dc:format>
        <dc:type
           rdf:resource="http://purl.org/dc/dcmitype/StillImage" />
        <dc:title />
      </cc:Work>
    </rdf:RDF>
  </metadata>
  <defs
     id="defs28">
    <linearGradient
       inkscape:collect="always"
       xlink:href="#linearGradient849"
       id="linearGradient851"
       x1="1284.4633"
       y1="2367.001"
       x2="1325.6335"
       y2="122.31287"
       gradientUnits="userSpaceOnUse"
       gradientTransform="matrix(0.00511165,0,0,0.00521515,20.432712,228.60343)" />
    <linearGradient
       inkscape:collect="always"
       id="linearGradient849">
      <stop
         style="stop-color:#d2d2d2;stop-opacity:1"
         offset="0"
         id="stop845" />
      <stop
         style="stop-color:#e6e6e6;stop-opacity:1"
         offset="1"
         id="stop847" />
    </linearGradient>
  </defs>
  <sodipodi:namedview
     pagecolor="#ffffff"
     bordercolor="#666666"
     borderopacity="1"
     objecttolerance="10"
     gridtolerance="10"
     guidetolerance="10"
     inkscape:pageopacity="0"
     inkscape:pageshadow="2"
     inkscape:window-width="1920"
     inkscape:window-height="1021"
     id="namedview26"
     showgrid="false"
     inkscape:zoom="22.892582"
     inkscape:cx="12.458126"
     inkscape:cy="7.5807271"
     inkscape:window-x="0"
     inkscape:window-y="25"
     inkscape:window-maximized="1"
     inkscape:current-layer="user-trash" />
  <g
     style="fill:none;fill-rule:evenodd;stroke:none;stroke-width:0.08848412"
     id="user-trash"
     transform="matrix(2.374092,0,0,2.4478583,-47.883767,-559.14628)">
    <path
       inkscape:connector-curvature="0"
       style="opacity:0.2;fill:#000000;fill-opacity:1;fill-rule:evenodd;stroke:none;stroke-width:0.02420512;stroke-linecap:round;stroke-linejoin:round;stroke-miterlimit:4;stroke-dasharray:none;stroke-opacity:0.39215686"
       id="path15-9"
       d="m 22.572105,240.11912 c 0.04564,0.5353 0.490163,0.96766 0.993033,0.96766 h 6.687156 c 0.500158,0 0.947466,-0.43323 0.993033,-0.96766 l 0.795325,-9.18699 c 0.361314,0 0.641492,-0.34245 0.641492,-0.70032 0,-0.36036 -0.305371,-0.58359 -0.641492,-0.58359 H 21.776779 c -0.334558,0 -0.641492,0.22573 -0.641492,0.58359 0,0.36036 0.305373,0.70032 0.641492,0.70032 z" />
    <path
       inkscape:connector-curvature="0"
       style="opacity:1;fill:url(#linearGradient851);fill-opacity:1;stroke:none;stroke-width:0.02420512;stroke-linecap:round;stroke-linejoin:round;stroke-miterlimit:4;stroke-dasharray:none;stroke-opacity:0.39215686"
       id="path15"
       d="m 22.572105,239.71059 c 0.04564,0.5353 0.490163,0.96766 0.993033,0.96766 h 6.687156 c 0.500158,0 0.947466,-0.43323 0.993033,-0.96766 l 0.795325,-9.18699 c 0.361314,0 0.641492,-0.34245 0.641492,-0.70032 0,-0.36036 -0.305371,-0.58359 -0.641492,-0.58359 H 21.776779 c -0.334558,0 -0.641492,0.22573 -0.641492,0.58359 0,0.36036 0.305373,0.70032 0.641492,0.70032 z" />
    <path
       inkscape:connector-curvature="0"
       style="fill:#007dcb;fill-opacity:1;stroke-width:0.00527139"
       id="path18"
       d="m 26.88692,233.75 c -0.610914,-1.34215 -1.253544,-0.26138 -1.253544,-0.26138 l -0.48726,0.91973 1.003019,0.62407 z m 2.169223,-0.41116 -0.540582,0.32599 -0.198121,-0.37249 c 0,0 -0.153074,-0.38767 -0.908326,-0.34704 0,0 -0.935906,0.0279 -1.033357,0.009 0,0 0.265234,0.0558 0.397162,0.27459 l 0.597582,1.1258 -0.436695,0.26236 1.465456,0.0338 z m -3.591929,3.2462 c -0.758009,1.25258 0.44359,1.27656 0.44359,1.27656 l 0.989688,-0.0347 -0.01977,-1.23691 z m -1.456262,-1.75918 0.542421,0.32208 -0.196742,0.37348 c 0,0 -0.230759,0.34165 0.194444,1.00636 0,0 0.509784,0.83798 0.5438,0.93637 0,0 -0.09332,-0.2702 0.01379,-0.50416 l 0.592984,-1.12873 0.438074,0.25991 -0.735026,-1.34998 z m 4.572424,1.57171 c 1.396963,0.094 0.830179,-1.03377 0.830179,-1.03377 l -0.511622,-0.90406 -1.003938,0.62261 z m -1.481545,0.95792 0.749276,-1.34166 v 0.535 h 1.214012 c 0.244089,-0.0147 0.420146,-0.23349 0.420146,-0.23349 -0.0639,0.0793 -0.502429,0.96231 -0.502429,0.96231 -0.337404,0.71953 -0.72997,0.67157 -0.72997,0.67157 h -0.401759 v 0.66079 z" />
    <g
       transform="matrix(0.05458684,0,0,0.05957448,23.961027,232.93856)"
       id="Group"
       style="stroke-width:0.0924382" />
  </g>
</svg>
